<?xml version="1.0" encoding="UTF-8"?>
<!DOCTYPE svg PUBLIC "-//W3C//DTD SVG 1.1//EN" "http://www.w3.org/Graphics/SVG/1.1/DTD/svg11.dtd">
<!-- Creator: CorelDRAW X5 -->
<svg xmlns="http://www.w3.org/2000/svg" xml:space="preserve" width="210mm" height="129.744mm" style="shape-rendering:geometricPrecision; text-rendering:geometricPrecision; image-rendering:optimizeQuality; fill-rule:evenodd; clip-rule:evenodd"
viewBox="0 0 21000 12974"
 xmlns:xlink="http://www.w3.org/1999/xlink">
 <defs>
  <style type="text/css">
   <![CDATA[
    .fil0 {fill:#00BCF1}
   ]]>
  </style>
 </defs>
 <g id="Layer_x0020_1">
  <metadata id="CorelCorpID_0Corel-Layer"/>
  <path class="fil0" d="M17792 3233c-170,585 -364,1189 -578,1812 -170,1814 -146,3292 56,4445 19,106 17,156 76,255 254,331 326,772 -42,942 -535,247 -897,-171 -1053,-1163 -79,-503 -127,-1021 -164,-1608 -200,470 -476,927 -782,1316 -594,755 -1435,741 -1866,-197 -439,-956 -545,-2695 -215,-4826 103,-663 262,-1042 416,-1167 283,-229 561,-245 815,13 228,231 180,548 -93,760 -221,789 -303,1728 -314,2576 -14,1050 93,1961 338,2274 325,-296 599,-794 834,-1331 312,-713 629,-1557 980,-2524 136,-921 281,-1634 438,-2137 177,-569 469,-841 853,-734 417,116 511,575 301,1295zm-12599 2962c912,0 1651,800 1651,1787 0,987 -739,1787 -1651,1787 -402,0 -771,-156 -1058,-415l0 303 -1036 0 0 -4848 1036 0 0 1800c286,-259 655,-415 1058,-415zm-1058 1674l0 226c52,457 414,811 853,811 475,0 859,-414 859,-924 0,-510 -385,-924 -859,-924 -439,0 -801,354 -853,811zm5353 3190l-1098 0 538 -1250 -1400 -3255 1098 0 822 2047 880 -2047 1098 0 -1938 4504zm2319 -2355c337,0 609,239 609,533 0,294 -273,533 -609,533 -337,0 -609,-239 -609,-533 0,-294 273,-533 609,-533z"/>
 </g>
</svg>
