<svg id="Layer_1" data-name="Layer 1" xmlns="http://www.w3.org/2000/svg" viewBox="0 0 1280 1280"><defs><style>.cls-1{fill:#fdbd10;}.cls-2{fill:#cc0615;}.cls-3{fill:#fff;}.cls-4{fill:#e51316;}.cls-5{fill:#e50014;}.cls-6{fill:#070202;}</style></defs><rect class="cls-1" x="0.5" y="-0.5" width="1280" height="1280"/><circle class="cls-2" cx="534.66" cy="528.22" r="241.22" transform="translate(-216.91 532.78) rotate(-45)"/><circle class="cls-2" cx="763.78" cy="287.29" r="91.71"/><path class="cls-3" d="M1043,814.79a120.53,120.53,0,0,0-16.68-61.19A120.68,120.68,0,0,0,1043,692.41c0-65.91-53-119.52-118.18-119.52L803.06,573c-22.76,0-29,18.91-29.11,28.95v32.32c-27.23-36.88-71.24-61.85-118.79-61.85a155.11,155.11,0,0,0-87.87,27.18,155.05,155.05,0,0,0-87.86-27.18c-49.58,0-95.27,27.13-122.14,66.6l0-7.81v0l-.1-3A59.54,59.54,0,0,0,339.85,589a59.76,59.76,0,1,0-84.75.1,59.48,59.48,0,0,0-17.3,40.67l0,187h-.07v192a74.08,74.08,0,0,0,74,74H969a74.09,74.09,0,0,0,74-74v-194Z"/><path class="cls-4" d="M266.84,546.93a30.62,30.62,0,1,1,30.63,30.59A30.62,30.62,0,0,1,266.84,546.93Z"/><path class="cls-5" d="M266.82,546.9a30.63,30.63,0,1,1,30.62,30.63A30.6,30.6,0,0,1,266.82,546.9Z"/><path class="cls-6" d="M297.51,601.93c-16.12,0-29.6,12.83-30.72,29.62V905.24h61.42V630.64a30.86,30.86,0,0,0-30.7-28.71Zm357.65-.46c-27.94,0-55,9.15-76.39,25.76l-11.47,8.93-11.47-8.93c-21.35-16.61-48.5-25.76-76.4-25.76-62.8,0-117.89,54-117.89,115.69V905.25h61.38V717.93c0-30.75,24.87-54.81,56.57-54.81s57.74,24.58,57.74,54.81V873.58c0,23,19.37,29,29.72,29a30,30,0,0,0,29.79-29V717.89c0-30.21,25.91-54.77,57.74-54.77,31.49,0,57.14,24.58,57.14,54.81V905.25H773V717.16c0-61.64-55.09-115.69-117.88-115.69Zm268.14,181a31.84,31.84,0,0,1,0,63.67H802.63v59.06l122,0c49-.12,88.86-40.71,88.86-90.45a92,92,0,0,0-17.61-54l-5.26-7.17,5.23-7.14a92,92,0,0,0,17.64-54c0-49.9-40-90.48-89.06-90.48l-121.85.12v58.59H923.26a31.82,31.82,0,0,1,0,63.63l-65.07,0h0l-.39,0a29.09,29.09,0,1,0,0,58.17Z"/><path class="cls-5" d="M984.87,944.86a58.62,58.62,0,0,0-55.41,0A59.14,59.14,0,0,0,904.34,971a58.81,58.81,0,0,0-25.09-26.11,58.56,58.56,0,0,0-55.38,0,59.17,59.17,0,0,0-25.2,26.3,59.22,59.22,0,0,0-25.19-26.31,58.72,58.72,0,0,0-55.42,0,59.44,59.44,0,0,0-25,25.92,58.77,58.77,0,0,0-25-25.92,58.68,58.68,0,0,0-55.4,0A59,59,0,0,0,587.54,971a58.89,58.89,0,0,0-25.08-26.11,58.6,58.6,0,0,0-55.4,0A59.17,59.17,0,0,0,481.93,971a58.68,58.68,0,0,0-105.57,0,58.78,58.78,0,0,0-25.1-26.11,58.14,58.14,0,0,0-27.71-7h-.08a58.67,58.67,0,1,0,52.89,84.25,58.65,58.65,0,0,0,105.57,0,58.69,58.69,0,0,0,105.62,0,58.66,58.66,0,0,0,105.49.17,58.71,58.71,0,0,0,105.63-.33,58.67,58.67,0,0,0,105.67.16,58.67,58.67,0,1,0,80.53-77.29Zm0,0Z"/><path class="cls-3" d="M344.52,975.38a29.85,29.85,0,0,0-9.43-6.41,29.76,29.76,0,0,0-32.82,6.41,32.18,32.18,0,0,0-6.38,9.49,30.49,30.49,0,0,0,0,23.38,31,31,0,0,0,6.38,9.45,30.38,30.38,0,0,0,9.44,6.37,30.37,30.37,0,0,0,23.38,0,31.67,31.67,0,0,0,9.43-6.37,30,30,0,0,0,6.34-9.45,29.9,29.9,0,0,0,0-23.38,31.05,31.05,0,0,0-6.35-9.49Zm-4.64,28.1a17.35,17.35,0,0,1-3.83,5.7,18.52,18.52,0,0,1-5.7,3.91,17.72,17.72,0,0,1-13.9,0,18,18,0,0,1-5.69-3.91,17.65,17.65,0,0,1-3.87-5.7,16.52,16.52,0,0,1-1.44-7,17,17,0,0,1,1.44-7,18.41,18.41,0,0,1,3.87-5.68,17.62,17.62,0,0,1,19.59-3.88,17.76,17.76,0,0,1,5.69,3.88,18,18,0,0,1,3.84,5.68,17.44,17.44,0,0,1,0,14Zm110.23-28.1a29.3,29.3,0,0,0-9.43-6.41,29.83,29.83,0,0,0-23.35,0,29.63,29.63,0,0,0-9.49,6.41,32.17,32.17,0,0,0-6.35,9.49,29.9,29.9,0,0,0,0,23.38,31,31,0,0,0,6.35,9.45,31.58,31.58,0,0,0,9.49,6.37,30.3,30.3,0,0,0,23.35,0,31,31,0,0,0,9.43-6.37,30.4,30.4,0,0,0,6.35-9.45,29.9,29.9,0,0,0,0-23.38,31.66,31.66,0,0,0-6.35-9.49Zm-4.61,28.1a17.66,17.66,0,0,1-3.86,5.7,18.29,18.29,0,0,1-5.7,3.91,17.12,17.12,0,0,1-6.93,1.42,17.49,17.49,0,0,1-7-1.42,18.92,18.92,0,0,1-5.68-3.91,17.94,17.94,0,0,1-3.86-5.7,17.33,17.33,0,0,1-1.43-6.92v0a18,18,0,0,1,1.43-7,18.91,18.91,0,0,1,3.86-5.68,17.83,17.83,0,0,1,5.68-3.88,17.35,17.35,0,0,1,6.93-1.44H429a17,17,0,0,1,6.94,1.44,17.49,17.49,0,0,1,5.7,3.88,18.48,18.48,0,0,1,3.86,5.68,17.86,17.86,0,0,1,0,14Zm427-28.1A29.81,29.81,0,0,0,839.69,969a30.09,30.09,0,0,0-9.46,6.41,32.14,32.14,0,0,0-6.34,9.49,29.57,29.57,0,0,0-2.4,11.66v0a29.39,29.39,0,0,0,2.4,11.68,30.88,30.88,0,0,0,6.34,9.45,31.69,31.69,0,0,0,9.46,6.37,30.37,30.37,0,0,0,23.38,0,30.69,30.69,0,0,0,9.43-6.37,30.24,30.24,0,0,0,6.36-9.45,30.37,30.37,0,0,0,0-23.38,31.38,31.38,0,0,0-6.36-9.49Zm-4.63,28.1a17.43,17.43,0,0,1-3.83,5.7,18.72,18.72,0,0,1-5.69,3.91,17.84,17.84,0,0,1-14,0,19.22,19.22,0,0,1-5.69-3.91,17.86,17.86,0,0,1-3.83-5.7,17.19,17.19,0,0,1-1.46-6.92v0a17.71,17.71,0,0,1,1.46-7,18.89,18.89,0,0,1,3.83-5.68,18.2,18.2,0,0,1,5.69-3.88,17.21,17.21,0,0,1,6.9-1.44h.06a17.25,17.25,0,0,1,7,1.44,18.23,18.23,0,0,1,9.52,9.56,17.77,17.77,0,0,1,0,14Zm110.23-28.1A29.59,29.59,0,0,0,957,966.59a29.55,29.55,0,0,0-21.15,8.79,31,31,0,0,0-6.35,9.49,29.9,29.9,0,0,0,0,23.38,29.88,29.88,0,0,0,6.35,9.45,31.08,31.08,0,0,0,9.41,6.37,30.21,30.21,0,0,0,11.64,2.34H957a29.94,29.94,0,0,0,11.69-2.34,30.76,30.76,0,0,0,9.42-6.37,31.2,31.2,0,0,0,6.39-9.45,30.25,30.25,0,0,0,0-23.38,32.41,32.41,0,0,0-6.39-9.49Zm-4.64,28.1a17.25,17.25,0,0,1-3.82,5.7,18.86,18.86,0,0,1-5.72,3.91,17,17,0,0,1-6.91,1.42,17.38,17.38,0,0,1-7-1.42,19.06,19.06,0,0,1-5.71-3.91,18.83,18.83,0,0,1-3.87-5.7,17.84,17.84,0,0,1-1.41-7v0a18.39,18.39,0,0,1,1.41-7,19.91,19.91,0,0,1,3.87-5.68,17.94,17.94,0,0,1,5.71-3.88,17.23,17.23,0,0,1,7-1.44,16.84,16.84,0,0,1,6.91,1.44,18.08,18.08,0,0,1,9.54,9.56,17.35,17.35,0,0,1,0,14ZM547.32,983.62a18.41,18.41,0,0,1,3.84,5.69,15.42,15.42,0,0,1,1.16,3.83h12.06a29.8,29.8,0,0,0-2.22-8.57,29.83,29.83,0,0,0-15.8-15.77,29.22,29.22,0,0,0-11.71-2.38,29.93,29.93,0,0,0-21.17,8.6,30.22,30.22,0,0,0-6.4,9.44,30.71,30.71,0,0,0-2.3,11.82v28.35h11.91V995.45h.07a17.79,17.79,0,0,1,1.39-6.14,18.12,18.12,0,0,1,3.86-5.69,18.74,18.74,0,0,1,5.67-3.84,17.55,17.55,0,0,1,14,0,18.91,18.91,0,0,1,5.68,3.84Zm120.53,1.85a32.2,32.2,0,0,0-6-9.76,28.2,28.2,0,0,0-9.33-6.73,30.6,30.6,0,0,0-24.11-.17,29.78,29.78,0,0,0-15.82,15.8,30.06,30.06,0,0,0,0,23.35,30.38,30.38,0,0,0,6.37,9.5,30.77,30.77,0,0,0,9.45,6.34,29.28,29.28,0,0,0,11.72,2.36,35.63,35.63,0,0,0,9.15-1.25,28.66,28.66,0,0,0,8.52-4,28.23,28.23,0,0,0,7-7.13,35.45,35.45,0,0,0,4.78-10H656.46a17,17,0,0,1-6.07,7.53,18.46,18.46,0,0,1-22.71-2,18.15,18.15,0,0,1-3.87-5.39,15.83,15.83,0,0,1-1.62-6.68l0-.56h48a35.39,35.39,0,0,0-2.26-11.18Zm-43.54,1,.55-.81c2.91-4.74,8.07-7.29,15.39-7.49,7.19.08,12.29,2.6,15.17,7.49l.48.81ZM775.67,996V946a61.35,61.35,0,0,0-11.92-5.35v32.84l-.92-.82a20,20,0,0,0-3.36-2.47,30,30,0,0,0-4.21-2,28.62,28.62,0,0,0-4.69-1.46,20.31,20.31,0,0,0-4.8-.54,29.22,29.22,0,0,0-11.69,2.37,29.6,29.6,0,0,0-15.81,15.81,30.37,30.37,0,0,0,0,23.38,29.91,29.91,0,0,0,15.81,15.83,29.71,29.71,0,0,0,11.69,2.33,30,30,0,0,0,21.19-8.6,29.18,29.18,0,0,0,6.4-9.47A30.18,30.18,0,0,0,775.67,996Zm-11.92,0a17.31,17.31,0,0,1-1.46,7,18.66,18.66,0,0,1-3.81,5.71,19.49,19.49,0,0,1-5.75,3.86,17.44,17.44,0,0,1-6.9,1.43h-.06a17.11,17.11,0,0,1-6.92-1.43,18.44,18.44,0,0,1-5.71-3.86,18,18,0,0,1-3.87-5.71,17.23,17.23,0,0,1-1.46-6.93V996a17,17,0,0,1,1.46-6.89,17.78,17.78,0,0,1,3.87-5.73,17.89,17.89,0,0,1,19.59-3.84,18.87,18.87,0,0,1,5.75,3.84,18.46,18.46,0,0,1,3.81,5.73,17.18,17.18,0,0,1,1.46,6.89Zm0,0Z"/><path class="cls-3" d="M427.12,416.09h16.59a4,4,0,0,1,4,4h0a4,4,0,0,0,6.57,3,37.35,37.35,0,0,1,24.82-9.29,33.79,33.79,0,0,1,16.79,4,29,29,0,0,1,9,7.94,4,4,0,0,0,6.05.35,43.43,43.43,0,0,1,10.95-8.29,35.08,35.08,0,0,1,16.41-4q11.1,0,18.78,4.5a27.68,27.68,0,0,1,11.48,13.23q2.75,6.45,2.75,20.87v60.41a4,4,0,0,1-4,4H548.61a4,4,0,0,1-4-4V459.25q0-15-2.75-19.35-3.71-5.7-11.39-5.69A18.16,18.16,0,0,0,520,437.62a19,19,0,0,0-7.12,10q-2.18,6.58-2.18,20.81v44.39a4,4,0,0,1-4,4H488a4,4,0,0,1-4-4V461.62q0-14.7-1.42-19a12.16,12.16,0,0,0-4.41-6.36,14,14,0,0,0-8.11-2.08,19.39,19.39,0,0,0-11.1,3.32,18.19,18.19,0,0,0-7.06,9.58q-2.13,6.25-2.13,20.77v45a4,4,0,0,1-4,4H427.12a4,4,0,0,1-4-4V420.08A4,4,0,0,1,427.12,416.09Z"/><path class="cls-3" d="M588.51,419.4h7a9.84,9.84,0,0,1,9.33,6.71l12.39,36.78c3,9,9.49,35.19,18.68-.07L648,426.17a9.85,9.85,0,0,1,9.36-6.77h6.37A9.84,9.84,0,0,1,673,432.64l-30.71,83.69-6.35,17.55a71.39,71.39,0,0,1-6.69,13.46,29.2,29.2,0,0,1-7.3,7.54,32,32,0,0,1-10.15,4.51A52.88,52.88,0,0,1,598.14,561q-3.57,0-7.08-.35a9.86,9.86,0,0,1-8.84-8.69l-.15-1.35a9.77,9.77,0,0,1,9.81-10.85h.1q9.28,0,13.75-5.46a35,35,0,0,0,5.62-10.15,9.93,9.93,0,0,0,0-7l-32-84.45A9.85,9.85,0,0,1,588.51,419.4Z"/></svg>