<svg id="Layer_1" data-name="Layer 1" xmlns="http://www.w3.org/2000/svg" viewBox="0 0 1280 1280"><defs><style>.cls-1{fill:#231916;}.cls-1,.cls-4{fill-rule:evenodd;}.cls-2{fill:#ee2060;}.cls-3{fill:#c3232f;}.cls-4{fill:#fff;}</style></defs><path class="cls-1" d="M115.28,849.3c21.87,0,44.62,8.09,43.33,7.53l-6.3,17.49c-2.35,6.29-8.82,4.45-18.77,2.52a92.82,92.82,0,0,0-17.79-1.91c-17.68,0-23.74,7.42-23.74,14.88,0,11.79,11.21,14.12,24.61,16,19.86,2.72,46.16,10.28,46.16,37.74,0,15.7-3.86,40.84-54,40.84C78,984.38,57.56,974,57.56,974s3.21-8.42,6-15.28c3-7.43,7.53-7.26,11.43-5.69a71.16,71.16,0,0,0,28.22,5.83c16.32,0,28.06-.75,28.11-15.16,0-11.3-13.68-12.57-28.94-15.09-19.27-3.19-41-12.85-41-38.51C61.32,859.5,92.45,849.3,115.28,849.3Z"/><path class="cls-1" d="M188.1,868.61V981.69h31.44V881.83c3.3-4.82,12.17-8.76,22.75-8.76,13.92,0,21.63,9.56,21.63,19.74v88.88h31.34V882.14s4.34-9.21,22.16-9.21c23.25,0,22.34,22.29,22.34,22.29v77.12c0,5.29,3.95,9.35,9.71,9.35h21.7V890.5s-.48-43.25-49.11-43.25c-29.75,0-40.46,9.18-40.46,9.18s-14.88-9.28-38.62-9.28S195.9,856.35,188.1,868.61Z"/><path class="cls-1" d="M1155.61,894.67v87h-22.25c-5.58,0-9.85-4.79-9.85-12.17V896c0-10.23-2.63-20.94-25.1-20.94-10.52,0-22.05,5.15-25.36,9.94v96.72h-31.71V868.61c9.88-9.89,32.89-21.46,56.65-21.46s34.8,6.21,42.09,10.61C1153.09,865.55,1155.61,879.34,1155.61,894.67Z"/><path class="cls-1" d="M478.19,954.29s-13.2,4-19.22,4c-5.62,0-32,1.68-32-15.26,0-16.28,16.51-19.29,18.34-19.75,10.27-2.63,32.57-1.7,32.57-1.7l.32,32.73Zm31.66-4.89V891.33s3.68-41.85-51.2-41.85c-41.44,0-51.53,9.26-51.53,9.26l4.44,16.6c1.54,4.67,6.69,6.18,14.08,4.28a125.16,125.16,0,0,1,29.3-4.15c26.65-.28,22.93,13,22.93,22.84-8.68,0-27.37-.28-39.39,2-2.73.52-41.89,7.32-41.89,45s34.62,38.18,51.37,38.18c24.29,0,50.86-3.53,61.89-10.16Z"/><path class="cls-1" d="M539.38,892.65v89.84H571V890s-1.43-13.12,14.13-13.56c.25,0,12.29,1.09,12.53,1.1a12.39,12.39,0,0,0,14.28-10.13A115.51,115.51,0,0,1,615,854.51s-19.23-6.36-40.44-3.73C573,851,539.38,855.43,539.38,892.65Z"/><path class="cls-1" d="M812.07,892.65v89.84h31.57V890s-1.48-13.12,14.14-13.56c.26,0,12.29,1.09,12.52,1.1a12.38,12.38,0,0,0,14.31-10.13,117.68,117.68,0,0,1,3.08-12.86s-19.19-6.36-40.43-3.73C845.68,851,812.07,855.43,812.07,892.65Z"/><path class="cls-1" d="M633.64,937.46s-4.44,45.18,45,45.65h4.68c13.14,0,19.68-2.18,19.68-2.18s-.57-4.22-1.61-12.66S693.18,957,685.64,957h-4.49c-13-.39-16.13-12.31-16.13-25.59V876.11h18.57c7.17,0,14.49-5.33,14.49-15.07V851H666.36V814.2s-20.34,4.87-23.68,5.94-9,4.84-9,13.44C633.67,837.86,633.64,937.46,633.64,937.46Z"/><path class="cls-1" d="M729.15,851V982.5h31V876.11h22.32c7.28,0,12.94-7.12,12.94-13.84V851H760.5V836.67s-.6-13.88,17.25-14.23h14c7.08,0,9.68-2.89,10.56-8.1s2.74-15.67,2.74-15.67-10.63-1.78-20.48-2.3c0,0-5.68-.3-12,0-6.39-.08-43.47,1.63-43.47,54.64Z"/><path class="cls-1" d="M984.94,903.65H926.35s1.22-32.5,29.15-32.5c30.68,0,29.44,32.5,29.44,32.5Zm31.34,9.33c.32-6.83,1.87-66.06-58.28-66.39s-64,55.57-64,69.2,3.76,66.41,64.56,66.41c33.5,0,44.74-6.91,44.74-6.91s-1.24-5.79-3-12.17-8.3-10.37-18.24-8.1c-6.84,1.49-9.68,2.32-17,2.32-18,0-37.85-9.61-37.85-30.39h76.6C1011.31,927,1016,919.81,1016.28,913Z"/><rect class="cls-2" x="1177.62" y="936.65" width="45.38" height="45.38"/><rect class="cls-3" x="370" y="188" width="528" height="528" rx="56.98"/><path class="cls-4" d="M547.49,609.78c1.48.57,2.9,1.18,4.37,1.75,6.48,2.54,10.75,5.78,15.25,9.32,31.39,21.57,16.28,43.24,58,68.74,25.67,15.73,68.12,11.89,92.26-10.27,31.33-28.81,31.54-76.16,3.24-102.09-25.44-23.32-69.07-24.48-105.89-34.15-73.33-19.26-145.34-55.17-154.27-96.3C449.16,395,521.68,336,569.92,309.09c128.57-71.7,246.61-30.23,251.77-17.42,8.3,20.57-47.94,64-90.19,78.59-4.28,1.37-9.69-2.22-12-4.59-18-18.54-42.35-24.93-64.7-22-36.39,4.77-68.24,33-64,64.59,1.38,10.42,8.67,17.23,20.11,25.12,34.37,23,106.95,8.4,133.28-1.08,106.48-38.4,154.21-137.17,144.09-163.74-12.31-32.29-190.4-95.86-367.86-3.58-95.18,49.52-145.24,135.49-142.92,189.83,1.28,30.51,41.86,101.56,162.11,151.75C542.39,607.62,545,608.71,547.49,609.78Z"/></svg>